<?xml version="1.0" encoding="utf-8"?>
<!-- Generator: Adobe Illustrator 16.0.0, SVG Export Plug-In . SVG Version: 6.00 Build 0)  -->
<!DOCTYPE svg PUBLIC "-//W3C//DTD SVG 1.1//EN" "http://www.w3.org/Graphics/SVG/1.1/DTD/svg11.dtd">
<svg version="1.1" id="Layer_1" xmlns="http://www.w3.org/2000/svg" xmlns:xlink="http://www.w3.org/1999/xlink" x="0px" y="0px"
	 width="256px" height="256px" viewBox="0 0 256 256" enable-background="new 0 0 256 256" xml:space="preserve">
<g>
	<rect x="78.5" y="56.5" fill="#FFFFFF" width="111" height="139"/>
	<path fill="#3F51B5" d="M128,0C57.308,0,0,57.308,0,128s57.308,128,128,128s128-57.308,128-128S198.692,0,128,0z M173.061,133.662
		l-62.334,42.434c-2.098,1.428-4.813,1.58-7.057,0.393c-2.243-1.187-3.646-3.516-3.646-6.054V85.565
		c0-2.538,1.403-4.867,3.646-6.054c2.243-1.187,4.959-1.036,7.057,0.393l62.334,42.435c1.873,1.275,2.995,3.395,2.995,5.662
		S174.935,132.387,173.061,133.662z"/>
</g>
</svg>
